<svg version="1.1" preserveAspectRatio="none" xmlns="http://www.w3.org/2000/svg" width="500" height="500" viewBox="0 0 500 500"><rect width="100%" height="100%" fill="#C8E3DF" fill-opacity="1"/><svg viewBox="539.8091 559.0713 594.6166 104.8" width="333" height="58.69059155092542" x="83.5px" y="220.6547px" xmlns="http://www.w3.org/2000/svg" xmlns:xlink="http://www.w3.org/1999/xlink" preserveAspectRatio="none"><defs></defs><style>.companyName {fill:#559092;fill-opacity:1;}.icon1 {fill:#559092;fill-opacity:1;}.icon2 {fill:#FBFBFB;fill-opacity:1;}.icon3 {fill:#185759;fill-opacity:1;}.icon3-str {stroke:#185759;stroke-opacity:1;}.text {fill:#559092;fill-opacity:1;}</style><g opacity="1" transform="rotate(0 539.8091 559.0713)">
<svg width="177.376" height="104.8" x="539.8091" y="559.0713" version="1.1" preserveAspectRatio="none" viewBox="5.199999809265137 20 89.9748764038086 53.16038513183594">
  <g transform="matrix(1 0 0 1 0 0)" class="icon1"><rect x="36.2" y="26.7" width="5.7" height="46.4"></rect><rect x="5.2" y="67.3" width="28.9" height="5.8"></rect><rect x="44.1" y="20" width="7.3" height="53.1"></rect><rect x="53.5" y="29.2" width="7.3" height="43.9"></rect><rect x="63" y="24.6" width="7.3" height="48.5"></rect><rect x="80.4" y="31.4" transform="matrix(0.905 -0.4253 0.4253 0.905 -14.4468 40.475)" width="6" height="42.5"></rect></g>
</svg>
</g><g opacity="1" transform="rotate(0 747.1851 641.0713)">
<svg width="103.5882" height="22.8" x="747.1851" y="641.0713" version="1.1" preserveAspectRatio="none" viewBox="3.64 -30.28 173.92000000000002 38.28">
  <g transform="matrix(1 0 0 1 0 0)" class="text"><path id="id-6izo4zJp7" d="M7.32-17.64Q8.32-19.48 10.28-20.44Q12.24-21.40 15.04-21.40L15.04-21.40L15.04-17.68Q14.72-17.72 14.16-17.72L14.16-17.72Q11.04-17.72 9.26-15.86Q7.48-14 7.48-10.56L7.48-10.56L7.48 0L3.64 0L3.64-21.20L7.32-21.20L7.32-17.64Z M42.72-10.48Q42.72-10.04 42.64-9.32L42.64-9.32L25.44-9.32Q25.80-6.52 27.90-4.82Q30-3.12 33.12-3.12L33.12-3.12Q36.92-3.12 39.24-5.68L39.24-5.68L41.36-3.20Q39.92-1.52 37.78-0.64Q35.64 0.24 33 0.24L33 0.24Q29.64 0.24 27.04-1.14Q24.44-2.52 23.02-5Q21.60-7.48 21.60-10.60L21.60-10.60Q21.60-13.68 22.98-16.16Q24.36-18.64 26.78-20.02Q29.20-21.40 32.24-21.40L32.24-21.40Q35.28-21.40 37.66-20.02Q40.04-18.64 41.38-16.16Q42.72-13.68 42.72-10.48L42.72-10.48ZM32.24-18.16Q29.48-18.16 27.62-16.48Q25.76-14.80 25.44-12.08L25.44-12.08L39.04-12.08Q38.72-14.76 36.86-16.46Q35-18.16 32.24-18.16L32.24-18.16Z M59.16-21.40Q63.56-21.40 65.90-19.24Q68.24-17.08 68.24-12.80L68.24-12.80L68.24 0L64.60 0L64.60-2.80Q63.64-1.32 61.86-0.54Q60.08 0.24 57.64 0.24L57.64 0.24Q54.08 0.24 51.94-1.48Q49.80-3.20 49.80-6L49.80-6Q49.80-8.80 51.84-10.50Q53.88-12.20 58.32-12.20L58.32-12.20L64.40-12.20L64.40-12.96Q64.40-15.44 62.96-16.76Q61.52-18.08 58.72-18.08L58.72-18.08Q56.84-18.08 55.04-17.46Q53.24-16.84 52-15.80L52-15.80L50.40-18.68Q52.04-20 54.32-20.70Q56.60-21.40 59.16-21.40L59.16-21.40ZM58.28-2.72Q60.48-2.72 62.08-3.70Q63.68-4.68 64.40-6.48L64.40-6.48L64.40-9.44L58.48-9.44Q53.60-9.44 53.60-6.16L53.60-6.16Q53.60-4.56 54.84-3.64Q56.08-2.72 58.28-2.72L58.28-2.72Z M95.64-29.68L99.48-29.68L99.48 0L95.80 0L95.80-3.36Q94.52-1.60 92.56-0.68Q90.60 0.24 88.24 0.24L88.24 0.24Q85.16 0.24 82.72-1.12Q80.28-2.48 78.90-4.94Q77.52-7.40 77.52-10.60L77.52-10.60Q77.52-13.80 78.90-16.24Q80.28-18.68 82.72-20.04Q85.16-21.40 88.24-21.40L88.24-21.40Q90.52-21.40 92.44-20.54Q94.36-19.68 95.64-18L95.64-18L95.64-29.68ZM88.56-3.12Q90.56-3.12 92.20-4.06Q93.84-5 94.76-6.70Q95.68-8.40 95.68-10.60L95.68-10.60Q95.68-12.80 94.76-14.50Q93.84-16.20 92.20-17.12Q90.56-18.04 88.56-18.04L88.56-18.04Q86.52-18.04 84.90-17.12Q83.28-16.20 82.34-14.50Q81.40-12.80 81.40-10.60L81.40-10.60Q81.40-8.40 82.34-6.70Q83.28-5 84.90-4.06Q86.52-3.12 88.56-3.12L88.56-3.12Z M110.76 0L110.76-21.20L114.60-21.20L114.60 0L110.76 0ZM112.68-25.28Q111.56-25.28 110.82-26Q110.08-26.72 110.08-27.76L110.08-27.76Q110.08-28.80 110.82-29.54Q111.56-30.28 112.68-30.28L112.68-30.28Q113.80-30.28 114.54-29.58Q115.28-28.88 115.28-27.84L115.28-27.84Q115.28-26.76 114.54-26.02Q113.80-25.28 112.68-25.28L112.68-25.28Z M137.24-21.40Q141.28-21.40 143.66-19.06Q146.04-16.72 146.04-12.20L146.04-12.20L146.04 0L142.20 0L142.20-11.76Q142.20-14.84 140.72-16.40Q139.24-17.96 136.48-17.96L136.48-17.96Q133.36-17.96 131.56-16.14Q129.76-14.32 129.76-10.92L129.76-10.92L129.76 0L125.92 0L125.92-21.20L129.60-21.20L129.60-18Q130.76-19.64 132.74-20.52Q134.72-21.40 137.24-21.40L137.24-21.40Z M173.92-21.20L177.56-21.20L177.56-2.88Q177.56 2.68 174.80 5.34Q172.04 8 166.56 8L166.56 8Q163.56 8 160.84 7.18Q158.12 6.36 156.44 4.84L156.44 4.84L158.28 1.88Q159.76 3.16 161.94 3.90Q164.12 4.64 166.44 4.64L166.44 4.64Q170.16 4.64 171.94 2.88Q173.72 1.12 173.72-2.48L173.72-2.48L173.72-4.16Q172.36-2.52 170.38-1.70Q168.40-0.88 166.08-0.88L166.08-0.88Q163.04-0.88 160.58-2.18Q158.12-3.48 156.72-5.82Q155.32-8.16 155.32-11.16L155.32-11.16Q155.32-14.16 156.72-16.50Q158.12-18.84 160.58-20.12Q163.04-21.40 166.08-21.40L166.08-21.40Q168.48-21.40 170.54-20.52Q172.60-19.64 173.92-17.92L173.92-17.92L173.92-21.20ZM166.52-4.24Q168.60-4.24 170.26-5.12Q171.92-6 172.86-7.58Q173.80-9.16 173.80-11.16L173.80-11.16Q173.80-14.24 171.76-16.14Q169.72-18.04 166.52-18.04L166.52-18.04Q163.28-18.04 161.24-16.14Q159.20-14.24 159.20-11.16L159.20-11.16Q159.20-9.16 160.14-7.58Q161.08-6 162.74-5.12Q164.40-4.24 166.52-4.24L166.52-4.24Z"/></g>
</svg>
</g><g opacity="1" transform="rotate(0 747.1851 559.0713)">
<svg width="387.2406" height="60" x="747.1851" y="559.0713" version="1.1" preserveAspectRatio="none" viewBox="1.36 -29.68 243.95999999999998 37.8">
  <g transform="matrix(1 0 0 1 0 0)" class="companyName"><path id="id-D6z1nYkh9" d="M21.56-6.92L21.56-14.60L28.56-14.60L28.56-3Q26.16-1.28 23.04-0.36Q19.92 0.56 16.80 0.56L16.80 0.56Q12.40 0.56 8.88-1.30Q5.36-3.16 3.36-6.48Q1.36-9.80 1.36-14L1.36-14Q1.36-18.20 3.36-21.52Q5.36-24.84 8.92-26.70Q12.48-28.56 16.96-28.56L16.96-28.56Q20.88-28.56 24-27.24Q27.12-25.92 29.20-23.44L29.20-23.44L24.16-18.88Q21.32-22 17.36-22L17.36-22Q13.76-22 11.56-19.82Q9.36-17.64 9.36-14L9.36-14Q9.36-11.68 10.36-9.86Q11.36-8.04 13.16-7.02Q14.96-6 17.28-6L17.28-6Q19.56-6 21.56-6.92L21.56-6.92Z M44.12 0.36Q40.64 0.36 37.84-1.08Q35.04-2.52 33.46-5.08Q31.88-7.64 31.88-10.88L31.88-10.88Q31.88-14.08 33.46-16.64Q35.04-19.20 37.82-20.62Q40.60-22.04 44.12-22.04L44.12-22.04Q47.64-22.04 50.44-20.62Q53.24-19.20 54.80-16.66Q56.36-14.12 56.36-10.88L56.36-10.88Q56.36-7.64 54.80-5.08Q53.24-2.52 50.44-1.08Q47.64 0.36 44.12 0.36L44.12 0.36ZM44.12-5.68Q46.12-5.68 47.40-7.06Q48.68-8.44 48.68-10.88L48.68-10.88Q48.68-13.28 47.40-14.64Q46.12-16 44.12-16L44.12-16Q42.12-16 40.84-14.64Q39.56-13.28 39.56-10.88L39.56-10.88Q39.56-8.44 40.84-7.06Q42.12-5.68 44.12-5.68L44.12-5.68Z M70.76 0.36Q67.28 0.36 64.48-1.08Q61.68-2.52 60.10-5.08Q58.52-7.64 58.52-10.88L58.52-10.88Q58.52-14.08 60.10-16.64Q61.68-19.20 64.46-20.62Q67.24-22.04 70.76-22.04L70.76-22.04Q74.28-22.04 77.08-20.62Q79.88-19.20 81.44-16.66Q83-14.12 83-10.88L83-10.88Q83-7.64 81.44-5.08Q79.88-2.52 77.08-1.08Q74.28 0.36 70.76 0.36L70.76 0.36ZM70.76-5.68Q72.76-5.68 74.04-7.06Q75.32-8.44 75.32-10.88L75.32-10.88Q75.32-13.28 74.04-14.64Q72.76-16 70.76-16L70.76-16Q68.76-16 67.48-14.64Q66.20-13.28 66.20-10.88L66.20-10.88Q66.20-8.44 67.48-7.06Q68.76-5.68 70.76-5.68L70.76-5.68Z M101.96-29.68L109.56-29.68L109.56 0L102.32 0L102.32-2.16Q100.20 0.36 95.96 0.36L95.96 0.36Q93 0.36 90.56-1.02Q88.12-2.40 86.70-4.96Q85.28-7.52 85.28-10.88L85.28-10.88Q85.28-14.24 86.70-16.78Q88.12-19.32 90.56-20.68Q93-22.04 95.96-22.04L95.96-22.04Q99.84-22.04 101.96-19.80L101.96-19.80L101.96-29.68ZM97.56-5.68Q99.52-5.68 100.80-7.06Q102.08-8.44 102.08-10.88L102.08-10.88Q102.08-13.28 100.82-14.64Q99.56-16 97.56-16L97.56-16Q95.56-16 94.28-14.64Q93-13.28 93-10.88L93-10.88Q93-8.44 94.28-7.06Q95.56-5.68 97.56-5.68L97.56-5.68Z M132.12 0L127.04-7.44L122.72-7.44L122.72 0L114.80 0L114.80-28L127.60-28Q131.40-28 134.20-26.74Q137-25.48 138.52-23.14Q140.04-20.80 140.04-17.64L140.04-17.64Q140.04-14.60 138.62-12.34Q137.20-10.08 134.56-8.80L134.56-8.80L140.60 0L132.12 0ZM132.04-17.64Q132.04-19.60 130.80-20.68Q129.56-21.76 127.12-21.76L127.12-21.76L122.72-21.76L122.72-13.56L127.12-13.56Q129.56-13.56 130.80-14.62Q132.04-15.68 132.04-17.64L132.04-17.64Z M166.20-10.80Q166.20-10.72 166.08-8.92L166.08-8.92L150.32-8.92Q150.80-7.24 152.18-6.34Q153.56-5.44 155.64-5.44L155.64-5.44Q157.20-5.44 158.34-5.88Q159.48-6.32 160.64-7.32L160.64-7.32L164.64-3.16Q161.48 0.36 155.40 0.36L155.40 0.36Q151.60 0.36 148.72-1.08Q145.84-2.52 144.26-5.08Q142.68-7.64 142.68-10.88L142.68-10.88Q142.68-14.08 144.22-16.62Q145.76-19.16 148.48-20.60Q151.20-22.04 154.60-22.04L154.60-22.04Q157.84-22.04 160.48-20.70Q163.12-19.36 164.66-16.82Q166.20-14.28 166.20-10.80L166.20-10.80ZM154.64-16.64Q152.88-16.64 151.70-15.64Q150.52-14.64 150.20-12.92L150.20-12.92L159.08-12.92Q158.76-14.64 157.58-15.64Q156.40-16.64 154.64-16.64L154.64-16.64Z M178.36-22.04Q183.76-22.04 186.60-19.58Q189.44-17.12 189.44-12.04L189.44-12.04L189.44 0L182.36 0L182.36-2.80Q180.72 0.36 175.96 0.36L175.96 0.36Q173.44 0.36 171.60-0.52Q169.76-1.40 168.82-2.90Q167.88-4.40 167.88-6.32L167.88-6.32Q167.88-9.40 170.24-11.10Q172.60-12.80 177.52-12.80L177.52-12.80L181.84-12.80Q181.64-16.24 177.24-16.24L177.24-16.24Q175.68-16.24 174.08-15.74Q172.48-15.24 171.36-14.36L171.36-14.36L168.80-19.52Q170.60-20.72 173.18-21.38Q175.76-22.04 178.36-22.04L178.36-22.04ZM178.08-4.44Q179.40-4.44 180.40-5.08Q181.40-5.72 181.84-6.96L181.84-6.96L181.84-8.84L178.56-8.84Q175.24-8.84 175.24-6.64L175.24-6.64Q175.24-5.64 176-5.04Q176.76-4.44 178.08-4.44L178.08-4.44Z M210-29.68L217.60-29.68L217.60 0L210.36 0L210.36-2.16Q208.24 0.36 204 0.36L204 0.36Q201.04 0.36 198.60-1.02Q196.16-2.40 194.74-4.96Q193.32-7.52 193.32-10.88L193.32-10.88Q193.32-14.24 194.74-16.78Q196.16-19.32 198.60-20.68Q201.04-22.04 204-22.04L204-22.04Q207.88-22.04 210-19.80L210-19.80L210-29.68ZM205.60-5.68Q207.56-5.68 208.84-7.06Q210.12-8.44 210.12-10.88L210.12-10.88Q210.12-13.28 208.86-14.64Q207.60-16 205.60-16L205.60-16Q203.60-16 202.32-14.64Q201.04-13.28 201.04-10.88L201.04-10.88Q201.04-8.44 202.32-7.06Q203.60-5.68 205.60-5.68L205.60-5.68Z M238.08-21.68L245.32-21.68L235.96 0.88Q234.32 4.88 231.96 6.50Q229.60 8.12 226.20 8.12L226.20 8.12Q224.48 8.12 222.74 7.58Q221.00 7.04 219.92 6.16L219.92 6.16L222.56 0.84Q223.20 1.44 224.10 1.78Q225.00 2.12 225.92 2.12L225.92 2.12Q227.00 2.12 227.70 1.68Q228.40 1.24 228.88 0.28L228.88 0.28L219.60-21.68L227.40-21.68L232.72-8.44L238.08-21.68Z"/></g>
</svg>
</g></svg></svg>